<svg xmlns="http://www.w3.org/2000/svg" version="1.1" xlink="http://www.w3.org/1999/xlink"
     xmlns:svgjs="http://svgjs.com/svgjs" width="100%" height="100%"
     viewBox="11.90000057220459 10.124998092651367 56.20000457763672 59.775001525878906"
     id="logoVector"
>
    <g fill="#5DACBD">
        <path stroke="#5DACBD" stroke-width="1.5" d="M40 69.9c-2.1 0-4.2-.6-6.1-1.6l-15.7-8.9c-3.9-2.2-6.3-6.3-6.3-10.7V31.3c0-4.4 2.4-8.5 6.3-10.7l15.7-8.9c3.7-2.1 8.5-2.1 12.2 0l15.7 8.9c3.9 2.2 6.3 6.3 6.3 10.7v17.4c0 4.4-2.4 8.5-6.3 10.7l-15.7 8.9c-1.9 1.1-4 1.6-6.1 1.6zm0-57.8c-1.8 0-3.5.5-5.1 1.3l-15.7 8.9c-3.2 1.8-5.2 5.3-5.2 9v17.4c0 3.7 2 7.2 5.2 9l15.7 8.9c3.1 1.8 7.1 1.8 10.2 0l15.7-8.9c3.2-1.8 5.2-5.3 5.2-9V31.3c0-3.7-2-7.2-5.2-9l-15.7-8.9c-1.6-.8-3.3-1.3-5.1-1.3z"></path>
        <path stroke="#5DACBD" stroke-width="1" d="M40 61.9c-1.4 0-2.8-.4-4.1-1.1l-12-6.9c-2.5-1.4-4-4.1-4-7.2V33.2c0-3.1 1.5-5.8 4-7.2L36 19.2c2.5-1.4 5.6-1.4 8.1 0L56 26.1c2.5 1.4 4 4.1 4 7.2v13.5c0 3.1-1.5 5.8-4 7.2l-12 6.8c-1.3.8-2.6 1.1-4 1.1zm.1-41.8c-1.1 0-2.1.3-3 .8L25 27.8c-1.9 1.1-3 3.1-3 5.4v13.5c0 2.4 1.1 4.4 3 5.4L37 59c.9.5 2 .8 3.1.8 1 0 2-.3 3-.8L55 52.2c1.9-1.1 3-3.1 3-5.4V33.2c0-2.4-1.1-4.4-2.9-5.4l-11.9-6.9c-1-.5-2.1-.8-3.1-.8z"></path>
        <path stroke="#5DACBD" d="M47.6 43.2l-5-1.9c-.7-.2-.8-.6-.7-1.4 0 0 2.4-2.7 2.4-4.7 0-2.7-1.8-5-4.1-5s-4.1 2.3-4.1 5.1c0 2 2.3 4.7 2.3 4.7 0 .8-.2 1.2-.9 1.4l-5.1 2c-.7.3-2.1 1.4-2.1 2.1 0 1.5 1.5 2.8 2.8 2.8h13.8c2.3 0 2.8-2.8 2.8-2.8 0-.9-1.4-1.8-2.1-2.3z"></path>
    </g>
</svg>